<svg xmlns="http://www.w3.org/2000/svg" width="1200" height="630" viewBox="0 0 1200 630" role="img" aria-labelledby="title desc">
  <title id="title">FPV Flight-Control Lab</title>
  <desc id="desc">Open FPV hardware, INAV firmware experiments, and Blackbox-based tuning tools.</desc>
  <rect width="1200" height="630" fill="#f7faf7"/>
  <rect x="0" y="0" width="1200" height="18" fill="#17211e"/>
  <rect x="72" y="72" width="1056" height="486" rx="8" fill="#ffffff" stroke="#d6dfda" stroke-width="2"/>
  <g transform="translate(120 130)">
    <text x="0" y="0" font-family="Inter,Segoe UI,Arial,sans-serif" font-size="62" font-weight="800" fill="#17211e">FPV Flight-Control Lab</text>
    <text x="0" y="58" font-family="Inter,Segoe UI,Arial,sans-serif" font-size="27" fill="#52615c">Open FPV hardware, INAV firmware, Blackbox tuning</text>
    <g transform="translate(0 102)">
      <rect x="0" y="0" width="178" height="46" rx="8" fill="#0f766e"/>
      <text x="22" y="31" font-family="Inter,Segoe UI,Arial,sans-serif" font-size="18" font-weight="800" fill="#ffffff">STM32H743</text>
      <rect x="196" y="0" width="116" height="46" rx="8" fill="#2563eb"/>
      <text x="222" y="31" font-family="Inter,Segoe UI,Arial,sans-serif" font-size="18" font-weight="800" fill="#ffffff">INAV</text>
      <rect x="330" y="0" width="142" height="46" rx="8" fill="#b91c1c"/>
      <text x="354" y="31" font-family="Inter,Segoe UI,Arial,sans-serif" font-size="18" font-weight="800" fill="#ffffff">75A ESC</text>
      <rect x="490" y="0" width="160" height="46" rx="8" fill="#c2410c"/>
      <text x="514" y="31" font-family="Inter,Segoe UI,Arial,sans-serif" font-size="18" font-weight="800" fill="#ffffff">Blackbox</text>
    </g>
  </g>
  <g transform="translate(126 358)">
    <rect x="0" y="0" width="214" height="118" rx="8" fill="#f7faf7" stroke="#d6dfda"/>
    <text x="24" y="42" font-family="Inter,Segoe UI,Arial,sans-serif" font-size="23" font-weight="800" fill="#17211e">SkyPilot H743</text>
    <text x="24" y="74" font-family="Inter,Segoe UI,Arial,sans-serif" font-size="17" fill="#52615c">Flight-controller PCB</text>
    <rect x="252" y="0" width="214" height="118" rx="8" fill="#f7faf7" stroke="#d6dfda"/>
    <text x="276" y="42" font-family="Inter,Segoe UI,Arial,sans-serif" font-size="23" font-weight="800" fill="#17211e">75A 4-in-1 ESC</text>
    <text x="276" y="74" font-family="Inter,Segoe UI,Arial,sans-serif" font-size="17" fill="#52615c">High-current board</text>
    <rect x="504" y="0" width="214" height="118" rx="8" fill="#f7faf7" stroke="#d6dfda"/>
    <text x="528" y="42" font-family="Inter,Segoe UI,Arial,sans-serif" font-size="23" font-weight="800" fill="#17211e">INAV PRs</text>
    <text x="528" y="74" font-family="Inter,Segoe UI,Arial,sans-serif" font-size="17" fill="#52615c">D-term filter work</text>
    <rect x="756" y="0" width="214" height="118" rx="8" fill="#f7faf7" stroke="#d6dfda"/>
    <text x="780" y="42" font-family="Inter,Segoe UI,Arial,sans-serif" font-size="23" font-weight="800" fill="#17211e">PID Tuner</text>
    <text x="780" y="74" font-family="Inter,Segoe UI,Arial,sans-serif" font-size="17" fill="#52615c">Blackbox log review</text>
  </g>
  <g transform="translate(804 136)">
    <rect x="0" y="0" width="252" height="168" rx="8" fill="#17211e"/>
    <rect x="18" y="18" width="216" height="132" rx="8" fill="#24302c"/>
    <g stroke="#34d399" stroke-width="5" fill="none" stroke-linecap="round">
      <path d="M42 48 H92 V76 H130"/>
      <path d="M42 118 H92 V92 H130"/>
      <path d="M136 76 H194 V48"/>
      <path d="M136 92 H194 V118"/>
    </g>
    <g fill="#e5e7eb" stroke="#9ca3af" stroke-width="3">
      <rect x="104" y="58" width="52" height="52" rx="8"/>
      <circle cx="42" cy="48" r="10"/>
      <circle cx="42" cy="118" r="10"/>
      <circle cx="194" cy="48" r="10"/>
      <circle cx="194" cy="118" r="10"/>
    </g>
  </g>
  <text x="120" y="540" font-family="Inter,Segoe UI,Arial,sans-serif" font-size="20" font-weight="800" fill="#0f766e">github.com/19379353560</text>
</svg>
